<?xml version="1.0" encoding="UTF-8" standalone="no"?>
<!-- Created with Inkscape (http://www.inkscape.org/) -->

<svg
   width="191.215mm"
   height="100.41389mm"
   viewBox="0 0 191.21503 100.4139"
   version="1.1"
   id="svg1"
   xml:space="preserve"
   inkscape:version="1.3 (0e150ed6c4, 2023-07-21)"
   sodipodi:docname="logo-agencia19 - Copia.svg"
   inkscape:export-filename="logo-respiro.png"
   inkscape:export-xdpi="96"
   inkscape:export-ydpi="96"
   xmlns:inkscape="http://www.inkscape.org/namespaces/inkscape"
   xmlns:sodipodi="http://sodipodi.sourceforge.net/DTD/sodipodi-0.dtd"
   xmlns="http://www.w3.org/2000/svg"
   xmlns:svg="http://www.w3.org/2000/svg"><sodipodi:namedview
     id="namedview1"
     pagecolor="#ffffff"
     bordercolor="#000000"
     borderopacity="0.25"
     inkscape:showpageshadow="2"
     inkscape:pageopacity="0.0"
     inkscape:pagecheckerboard="0"
     inkscape:deskcolor="#d1d1d1"
     inkscape:document-units="mm"
     inkscape:zoom="0.45"
     inkscape:cx="263.33333"
     inkscape:cy="236.66667"
     inkscape:window-width="1360"
     inkscape:window-height="705"
     inkscape:window-x="-8"
     inkscape:window-y="-8"
     inkscape:window-maximized="1"
     inkscape:current-layer="layer1"
     showguides="true"
     showgrid="false"><inkscape:grid
       id="grid2"
       units="mm"
       originx="-211.21715"
       originy="-367.34424"
       spacingx="1"
       spacingy="0.99999997"
       empcolor="#0099e5"
       empopacity="0.30196078"
       color="#0099e5"
       opacity="0.14901961"
       empspacing="5"
       dotted="false"
       gridanglex="30"
       gridanglez="30"
       visible="false" /></sodipodi:namedview><defs
     id="defs1"><rect
       x="487.38086"
       y="222.73965"
       width="286.69461"
       height="222.73965"
       id="rect2" /><rect
       x="246.38727"
       y="222.99608"
       width="509.9281"
       height="249.5061"
       id="rect1" /></defs><g
     inkscape:label="Camada 1"
     inkscape:groupmode="layer"
     id="layer1"
     transform="translate(-55.884537,-97.193167)"><g
       id="g13"
       inkscape:label="logo"
       transform="translate(8.6170347,8.8668324)"><g
         id="text1"
         style="font-size:64px;font-family:Etna;-inkscape-font-specification:Etna;white-space:pre;display:inline;fill:#1b1b1b"
         inkscape:label="agencia19"
         transform="matrix(0.5790096,0,0,0.5790096,-87.146305,13.186929)"
         aria-label="Agência 19"><path
           d="m 280.24272,278.99609 h 11.52 l -22.336,-41.6 -22.4,41.6 h 11.52 l 3.008,-5.824 h 15.68 z m -14.656,-13.632 3.84,-7.296 3.776,7.296 z m 53.31199,-19.392 v 3.392 c -1.984,-2.496 -5.184,-3.392 -8.128,-3.392 -9.152,0.064 -16.448,7.488 -16.384,16.576 0,9.088 7.424,16.448 16.576,16.384 2.88,0 5.952,-1.28 7.936,-3.264 l 0.064,3.264 c 0,2.176 -0.832,4.16 -2.368,5.696 -1.472,1.536 -3.52,2.432 -5.696,2.432 -2.176,0 -4.224,-0.832 -5.76,-2.368 -1.088,-1.088 -1.856,-2.368 -2.176,-3.776 h -8.448 c 0.96,8.192 7.936,14.528 16.448,14.464 9.024,-0.064 16.32,-7.424 16.32,-16.448 v -32.96 z m 0,17.472 c -0.192,1.792 -1.024,3.456 -2.304,4.736 -1.472,1.536 -3.52,2.368 -5.696,2.432 -2.176,0 -4.224,-0.832 -5.76,-2.368 -1.536,-1.536 -2.432,-3.584 -2.432,-5.76 0,-2.176 0.832,-4.16 2.368,-5.76 1.536,-1.536 3.52,-2.368 5.696,-2.368 2.176,0 4.224,0.832 5.76,2.304 1.344,1.344 2.176,3.008 2.368,4.864 z m 44.28805,-1.024 c -0.064,-9.088 -7.488,-16.448 -16.576,-16.384 -9.088,0.064 -16.448,7.488 -16.384,16.576 0.064,9.088 7.488,16.448 16.576,16.384 7.168,-0.064 10.816,-3.072 14.272,-8.384 l -8.32,-2.624 c -0.064,0.064 -0.192,0.192 -0.256,0.256 -1.536,1.536 -3.584,2.368 -5.76,2.432 -2.112,0 -4.16,-0.832 -5.76,-2.368 -0.96,-0.96 -1.408,-1.536 -1.856,-2.816 l 24.064,0.064 c 0.064,-0.448 0,-2.688 0,-3.136 z m -16.512,-8 c 2.176,0 4.224,0.832 5.76,2.304 0.768,0.832 1.408,1.728 1.792,2.752 h -15.04 c 0.384,-1.024 1.024,-1.92 1.728,-2.688 1.536,-1.536 3.584,-2.368 5.76,-2.368 z m 9.088,-15.68 -9.152,-9.088 -9.024,9.024 4.608,4.608 4.416,-4.416 4.48,4.48 z m 26.75206,7.424 c -2.944,0.256 -5.376,0.832 -8.064,4.032 v -4.288 h -8.96 v 33.088 h 8.96 v -16.256 h 0.064 c 0,0 0,-0.064 0,-0.064 -0.064,-2.176 0.768,-4.224 2.304,-5.76 1.536,-1.536 3.584,-2.368 5.76,-2.432 2.176,0 4.224,0.832 5.76,2.368 1.536,1.536 2.368,3.584 2.368,5.76 0,0 0,0.064 0,0.128 h 0.064 v 14.208 2.048 h 8.32 v -15.68 c 0,-0.256 0,-0.512 0,-0.768 0,-11.328 -7.552,-17.152 -16.576,-16.384 z m 40.19203,22.912 c -1.408,1.024 -3.072,1.6 -4.864,1.6 -2.176,-0.064 -4.224,-0.896 -5.76,-2.432 -1.536,-1.536 -2.368,-3.584 -2.304,-5.76 0,-2.176 0.832,-4.224 2.368,-5.76 1.536,-1.472 3.584,-2.304 5.76,-2.304 1.792,0 3.456,0.576 4.864,1.6 l 5.952,-5.888 c -2.88,-2.496 -6.656,-4.032 -10.752,-4.096 -9.088,-0.064 -16.512,7.296 -16.576,16.384 -0.064,9.088 7.296,16.512 16.384,16.576 4.16,0 7.936,-1.472 10.88,-3.968 z m 17.79201,-34.688 h -8.896 v 7.552 h 8.896 z m 0.064,11.712 h -8.96 v 32.896 h 8.96 z m 27.52005,-0.192 v 3.648 c -1.984,-2.496 -5.376,-3.648 -8.512,-3.648 -9.088,0.064 -16.448,7.488 -16.384,16.576 0.064,9.088 7.488,16.448 16.576,16.384 3.008,0 6.336,-1.024 8.32,-3.584 v 3.712 h 8.96 v -33.088 z m -2.688,22.208 c -1.472,1.536 -3.52,2.368 -5.696,2.432 -2.176,0 -4.224,-0.832 -5.76,-2.368 -1.536,-1.536 -2.432,-3.584 -2.432,-5.76 0,-2.176 0.832,-4.224 2.368,-5.76 1.536,-1.536 3.584,-2.368 5.76,-2.368 2.112,-0.064 4.16,0.768 5.696,2.304 1.6,1.536 2.432,3.584 2.432,5.76 0,2.176 -0.832,4.224 -2.368,5.76 z"
           id="path4"
           style="display:inline;fill:#1b1b1b;fill-opacity:1" /><path
           style="display:inline;fill:#ff5722"
           d="m 497.52291,238.6218 v 6.55709 l 9.6,-1.8308 v 35.648 h 8.96 v -44.608 h -1.28 m 32.70402,13.376 c -0.064,-1.728 -0.448,-3.392 -1.088,-4.992 -0.704,-1.6 -1.728,-3.072 -2.944,-4.352 -1.28,-1.28 -2.752,-2.24 -4.416,-2.944 -1.664,-0.704 -3.52,-1.088 -5.376,-1.088 -1.856,0 -3.648,0.384 -5.376,1.088 -1.6,0.704 -3.072,1.664 -4.352,2.944 -1.28,1.28 -2.24,2.752 -2.944,4.352 -0.704,1.728 -1.088,3.52 -1.088,5.376 0,1.856 0.384,3.712 1.088,5.376 0.704,1.664 1.664,3.136 2.944,4.416 1.28,1.216 2.752,2.24 4.352,2.944 1.728,0.704 3.52,1.088 5.376,1.088 1.664,0 3.328,-0.32 4.864,-0.896 v 4.16 l -0.064,0.512 c -0.256,2.432 -2.304,4.288 -4.8,4.288 -2.496,0 -4.544,-1.856 -4.8,-4.288 h -8.96 c 0.064,1.664 0.448,3.328 1.088,4.864 0.704,1.664 1.664,3.136 2.944,4.352 1.28,1.28 2.752,2.304 4.352,3.008 1.728,0.704 3.52,1.024 5.376,1.024 1.856,0 3.712,-0.32 5.376,-1.024 1.664,-0.704 3.136,-1.728 4.416,-3.008 1.216,-1.216 2.24,-2.688 2.944,-4.352 0.64,-1.536 1.024,-3.2 1.024,-4.864 z m -13.824,5.248 c -2.624,0 -4.8,-2.176 -4.8,-4.864 0,-2.624 2.176,-4.8 4.8,-4.8 2.688,0 4.864,2.176 4.864,4.8 0,2.688 -2.176,4.864 -4.864,4.864 z"
           id="path5"
           sodipodi:nodetypes="ccccccccccsscscssccscccscccccssscccsssss" /></g><g
         id="g1"
         inkscape:label="simbolo"
         transform="matrix(1.0069828,0,0,1.0069828,-1.096798,-1.2824175)"><path
           id="text2"
           style="font-size:192px;font-family:Etna;-inkscape-font-specification:Etna;white-space:pre;fill:#ff5722;stroke:#ff5722;stroke-width:0.398846;stroke-opacity:1"
           inkscape:label="A"
           d="m 132.02436,93.928653 -17.45131,38.007097 c 0.35591,-0.31858 0.71811,-0.6337 1.09474,-0.94122 4.0777,-3.32953 9.04763,-7.13931 14.60462,-9.00261 l 1.75195,-3.32847 1.22635,2.36941 c 2.66278,-0.82794 5.35092,-1.60669 7.97766,-2.39616 1.15202,-0.34625 2.32365,-0.71593 3.48494,-1.07504 z m 23.34439,43.962887 c -1.19375,1.45224 -4.12231,2.0239 -6.26957,2.34895 -2.06128,0.31203 -4.08069,0.34091 -6.06773,0.18735 l 2.14451,4.15221 h 13.78406 z"
           sodipodi:nodetypes="ccccccscccscccc" /><path
           style="display:inline;fill:#892100;fill-opacity:1;stroke:#ffffff;stroke-width:0.622947;stroke-opacity:0"
           d="m 154.70473,135.99673 c -10.47157,0 -20.61378,-0.89602 -30.38144,-3.76623 v -0.13948 c 9.54753,2.3335 21.0884,3.91333 31.22723,2.19547 3.55832,-0.60288 9.30048,-2.66707 9.67085,-5.68272 -3.26409,0.55687 -6.75004,1.28739 -10.06035,1.7448 -6.68605,0.92387 -12.83982,0.59745 -20.32109,0.34551 -2.54135,-0.0856 -5.0601,-0.54088 -7.59536,-0.55593 v -0.13948 c 3.23739,-0.13274 6.51433,-0.0419 9.59806,0.0135 14.11396,0.25407 20.07129,-0.76721 25.98051,-2.51107 4.53914,-1.33954 10.26852,-3.45131 10.3831,-7.40625 l -10.06035,2.62492 -19.95938,3.25608 -11.26787,1.23297 v -0.13951 c 2.78704,-0.54049 4.3594,-0.76785 8.26693,-1.46777 6.04894,-1.08347 12.928,-2.69817 19.10787,-4.17361 4.67132,-1.11524 10.45999,-2.84108 14.30217,-5.14472 2.59281,-1.55456 2.33718,-3.47216 2.33718,-5.67365 -10.38715,2.03073 -20.65783,5.60818 -30.57618,8.58916 -9.30035,2.79523 -19.40973,5.36566 -26.2359,10.93937 -3.48845,2.84838 -6.10472,6.17571 -7.78094,9.76427 -0.52006,1.11333 -1.41493,2.5744 -1.32736,3.76611 0.0481,0.65391 0.89989,1.11093 1.75213,1.11093 h 7.10565 c 1.22772,0 2.81803,-0.13849 3.42112,-0.93539 1.59886,-2.11262 -3.69002,-5.74075 -0.59699,-8.76018 1.63579,-1.59684 4.8281,-0.38623 6.52403,0.91282 2.94548,2.25619 12.87454,3.95808 19.86478,2.8999 2.40125,-0.3635 5.78664,-1.03223 6.6216,-2.8999 m -22.98084,-8.78783 -0.19475,0.13949 0.19475,-0.13949"
           id="path7"
           sodipodi:nodetypes="cccscssccsscccccssscsssssssssscccc"
           inkscape:label="asa" /></g></g></g></svg>
